<svg width="20" height="20" viewBox="0 0 20 20" xmlns="http://www.w3.org/2000/svg"><title>bolt</title><path d="M12.03282 2.09387C12.01142 2.04017 11.9696 2 11.90672 2H8.2073c-.03352 0-.0585.01166-.07858.02796-.0445.0248-.07232.07146-.04752.13385.77033 1.94 1.54067 3.8803 2.3112 5.82H5.13296c-.07838 0-.15733.083-.1259.162.68703 1.7304 1.37407 3.4607 2.0609 5.1911.4114 1.03628.3524.7698.7636 1.8059.0829.20887.16583.4175.24875.62637-.081.0309-.1618.06147-.2429.0922-.2307.08757-.4617.17496-.6925.2627-.1075.04055-.1291.16756-.0314.23347 1.4017.94608 2.8036 1.89235 4.2051 2.83843.0684.0459.174.00016.1922-.0763l1.1456-4.86704c.0201-.08627-.0621-.19477-.1607-.15737-.17834.0674-.3565.13495-.53444.20234-.14142.0533-.28247.10663-.4235.16014-.1505-.3731-.29894-.7467-.44755-1.12087-.401-1.00975-.3316-.7176-.73275-1.72755h5.25694c.0784 0 .15733-.08295.1259-.162-1.23567-3.11707-2.47153-6.23432-3.7074-9.35138z" fill="#FFE06D" fill-rule="evenodd"/></svg>