<svg width="98" height="135" viewBox="0 0 98 135" fill="none" xmlns="http://www.w3.org/2000/svg">
<path fill-rule="evenodd" clip-rule="evenodd" d="M72.0007 46.5564H44.4404C43.1731 46.5564 42.1437 47.5942 42.1437 48.8718C42.1437 50.1493 43.1731 51.1871 44.4404 51.1871H72.0007C73.268 51.1871 74.2974 50.1493 74.2974 48.8718C74.2974 47.5942 73.268 46.5564 72.0007 46.5564Z" fill="#2C546A"/>
<path fill-rule="evenodd" clip-rule="evenodd" d="M72.0007 74.3406H44.4404C43.1731 74.3406 42.1437 75.3784 42.1437 76.6559C42.1437 77.9335 43.1731 78.9713 44.4404 78.9713H72.0007C73.268 78.9713 74.2974 77.9335 74.2974 76.6559C74.2974 75.3784 73.268 74.3406 72.0007 74.3406Z" fill="#2C546A"/>
<path fill-rule="evenodd" clip-rule="evenodd" d="M72.0007 102.125H44.4404C43.1731 102.125 42.1437 103.163 42.1437 104.44C42.1437 105.718 43.1731 106.756 44.4404 106.756H72.0007C73.268 106.756 74.2974 105.718 74.2974 104.44C74.2974 103.163 73.268 102.125 72.0007 102.125Z" fill="#2C546A"/>
<path fill-rule="evenodd" clip-rule="evenodd" d="M24.4421 45.8787L29.0354 50.5095C29.9316 51.415 31.3875 51.415 32.2836 50.5095L41.4704 41.248C42.3655 40.3446 42.3655 38.8768 41.4704 37.9734C40.5743 37.071 39.1184 37.071 38.2222 37.9734L30.6597 45.5985L27.6905 42.6041C26.7944 41.7018 25.3385 41.7018 24.4423 42.6041C23.5472 43.5076 23.5472 44.9753 24.4423 45.8787H24.4421Z" fill="#2C546A"/>
<path fill-rule="evenodd" clip-rule="evenodd" d="M24.4421 73.6632L29.0354 78.2939C29.9316 79.1994 31.3875 79.1994 32.2836 78.2939L41.4704 69.0324C42.3655 68.129 42.3655 66.6613 41.4704 65.7578C40.5743 64.8555 39.1184 64.8555 38.2222 65.7578L30.6597 73.3829L27.6905 70.3886C26.7944 69.4862 25.3385 69.4862 24.4423 70.3886C23.5472 71.292 23.5472 72.7597 24.4423 73.6632H24.4421Z" fill="#2C546A"/>
<path fill-rule="evenodd" clip-rule="evenodd" d="M24.4421 101.448L29.0354 106.078C29.9316 106.984 31.3875 106.984 32.2836 106.078L41.4704 96.8169C42.3655 95.9134 42.3655 94.4457 41.4704 93.5423C40.5743 92.6399 39.1184 92.6399 38.2222 93.5423L30.6597 101.167L27.6905 98.173C26.7944 97.2706 25.3385 97.2706 24.4423 98.173C23.5472 99.0764 23.5472 100.544 24.4423 101.448H24.4421Z" fill="#2C546A"/>
<path fill-rule="evenodd" clip-rule="evenodd" d="M72.0007 37.2949H49.0338C47.7665 37.2949 46.7371 38.3327 46.7371 39.6103C46.7371 40.8879 47.7665 41.9257 49.0338 41.9257H72.0007C73.268 41.9257 74.2974 40.8879 74.2974 39.6103C74.2974 38.3327 73.268 37.2949 72.0007 37.2949Z" fill="#2C546A"/>
<path fill-rule="evenodd" clip-rule="evenodd" d="M72.0007 65.0791H49.0338C47.7665 65.0791 46.7371 66.1169 46.7371 67.3945C46.7371 68.672 47.7665 69.7098 49.0338 69.7098H72.0007C73.268 69.7098 74.2974 68.672 74.2974 67.3945C74.2974 66.1169 73.268 65.0791 72.0007 65.0791Z" fill="#2C546A"/>
<path fill-rule="evenodd" clip-rule="evenodd" d="M72.0007 92.8635H49.0338C47.7665 92.8635 46.7371 93.9013 46.7371 95.1789C46.7371 96.4565 47.7665 97.4943 49.0338 97.4943H72.0007C73.268 97.4943 74.2974 96.4565 74.2974 95.1789C74.2974 93.9013 73.268 92.8635 72.0007 92.8635Z" fill="#2C546A"/>
<path fill-rule="evenodd" clip-rule="evenodd" d="M92.6707 16.4566V127.594C92.6707 128.872 91.6413 129.91 90.374 129.91H30.66C29.3927 129.91 28.3633 130.947 28.3633 132.225C28.3633 133.502 29.3927 134.54 30.66 134.54H90.374C94.1799 134.54 97.2641 131.431 97.2641 127.594V16.4566C97.2641 12.6197 94.1799 9.51049 90.374 9.51049H85.7806C84.5133 9.51049 83.4839 10.5483 83.4839 11.8259C83.4839 13.1034 84.5133 14.1412 85.7806 14.1412H90.374C91.6413 14.1412 92.6707 15.179 92.6707 16.4566ZM88.0773 121.574V22.4765C88.0773 21.4946 87.6887 20.5529 86.9997 19.8583C86.3107 19.1637 85.3766 18.7719 84.4026 18.7719H69.3111C69.5664 18.0474 69.7038 17.269 69.7038 16.4566V14.1412H76.5938C77.8611 14.1412 78.8905 13.1034 78.8905 11.8259C78.8905 10.5483 77.8611 9.51049 76.5938 9.51049H69.7038V7.19512C69.7038 3.35823 66.6196 0.249023 62.8137 0.249023H35.2534C31.4474 0.249023 28.3633 3.35823 28.3633 7.19512V9.51049H7.69306C3.88711 9.51049 0.802979 12.6197 0.802979 16.4566V127.594C0.802979 131.431 3.88711 134.54 7.69306 134.54H21.4732C22.7405 134.54 23.7699 133.502 23.7699 132.225C23.7699 130.947 22.7405 129.91 21.4732 129.91H7.69306C6.42578 129.91 5.39636 128.872 5.39636 127.594V16.4566C5.39636 15.179 6.42578 14.1412 7.69306 14.1412H28.3633V16.4566C28.3633 17.269 28.5007 18.0474 28.756 18.7719H13.6645C12.6904 18.7719 11.7564 19.1637 11.0674 19.8583C10.3784 20.5529 9.98977 21.4946 9.98977 22.4765V121.574C9.98977 122.556 10.3784 123.498 11.0674 124.192C11.7564 124.887 12.6904 125.279 13.6645 125.279H84.4026C86.4328 125.279 88.0773 123.621 88.0773 121.574H88.0773ZM83.4839 120.648V23.4027H14.5831V120.648H83.4839ZM65.1104 7.19512V16.4566C65.1104 17.7342 64.0809 18.7719 62.8137 18.7719H35.2533C33.9861 18.7719 32.9567 17.7342 32.9567 16.4566V7.19512C32.9567 5.91754 33.9861 4.87976 35.2533 4.87976H62.8137C64.0809 4.87976 65.1104 5.91754 65.1104 7.19512Z" fill="#2C546A"/>
</svg>
