<svg width="135" height="135" viewBox="0 0 135 135" fill="none" xmlns="http://www.w3.org/2000/svg">
<path d="M64.5199 94.2004C67.9443 93.2712 70.4827 90.1692 70.4827 86.4548C70.4827 82.7404 67.9444 79.636 64.5199 78.7093C64.894 77.7801 65.111 76.7729 65.111 75.7118C65.111 71.2693 61.4961 67.6543 57.0536 67.6543H51.682V43.4821H59.7394C62.7022 43.4821 65.111 41.0733 65.111 38.1105V5.88088C65.111 2.91812 62.7022 0.509277 59.7394 0.509277H27.5098C24.547 0.509277 22.1382 2.91812 22.1382 5.88088V38.1105C22.1382 41.0733 24.547 43.4821 27.5098 43.4821H35.5672V56.9111H28.1572C23.9114 56.9111 19.6921 57.5023 15.6143 58.6677L2.60122 62.3846C1.17559 62.7922 0.350666 64.2778 0.755931 65.7045C1.09167 66.8856 2.16599 67.6541 3.33743 67.6541C3.58203 67.6541 3.83144 67.6194 4.07601 67.5498L17.0891 63.833C20.6875 62.8042 24.4105 62.2826 28.1574 62.2826H35.5674V67.6542H32.8816C31.3997 67.6542 30.1958 68.8581 30.1958 70.34C30.1958 71.822 31.3997 73.0258 32.8816 73.0258H57.0539C58.5334 73.0258 59.7397 74.2321 59.7397 75.7116C59.7397 77.1912 58.5334 78.3975 57.0539 78.3975H32.8816C31.3997 78.3975 30.1958 79.6013 30.1958 81.0833C30.1958 82.5652 31.3997 83.7691 32.8816 83.7691H62.4255C63.905 83.7691 65.1113 84.9753 65.1113 86.4549C65.1113 87.9344 63.905 89.1407 62.4255 89.1407H32.8816C31.3997 89.1407 30.1958 90.3445 30.1958 91.8265C30.1958 93.3084 31.3997 94.5123 32.8816 94.5123H57.0539C58.5334 94.5123 59.7397 95.7185 59.7397 97.1981C59.7397 98.6777 58.5334 99.8839 57.0539 99.8839H30.1958C28.7139 99.8839 27.51 101.088 27.51 102.57C27.51 104.052 28.7139 105.255 30.1958 105.255H48.9964C50.476 105.255 51.6822 106.462 51.6822 107.941C51.6822 109.421 50.476 110.627 48.9964 110.627H28.1574C24.4105 110.627 20.6887 110.106 17.0891 109.078L4.07601 105.361C2.6468 104.953 1.16479 105.78 0.756053 107.206C0.348394 108.632 1.17452 110.118 2.60134 110.526L15.6144 114.243C19.691 115.407 23.9103 115.999 28.1573 115.999H48.9963C53.4388 115.999 57.0538 112.384 57.0538 107.941C57.0538 106.996 56.8607 106.098 56.5598 105.255H57.0538C61.4962 105.255 65.1112 101.64 65.1112 97.1979C65.1112 96.1368 64.8941 95.1296 64.5201 94.2004L64.5199 94.2004ZM27.5111 5.88199H59.7407L59.7431 38.1116H27.5104L27.5111 5.88199ZM40.9401 67.6554V43.4832H46.3117V67.6554H40.9401Z" fill="#2C546A"/>
<path d="M40.9404 27.3683C39.4584 27.3683 38.2546 28.5721 38.2546 30.0541C38.2546 31.5361 39.4584 32.7399 40.9404 32.7399H42.2833C42.2833 34.2219 43.4871 35.4257 44.9691 35.4257C46.4511 35.4257 47.6549 34.2219 47.6549 32.7399V32.5492C49.9642 31.9473 51.6836 29.8634 51.6836 27.3682V24.6824C51.6836 21.7197 49.2747 19.3108 46.312 19.3108H43.6262V16.625H48.9978C50.4798 16.625 51.6836 15.4212 51.6836 13.9392C51.6836 12.4573 50.4798 11.2534 48.9978 11.2534H47.6549C47.6549 9.77145 46.4511 8.56763 44.9691 8.56763C43.4871 8.56763 42.2833 9.77145 42.2833 11.2534V11.4441C39.974 12.046 38.2546 14.1299 38.2546 16.6251V19.3109C38.2546 22.2736 40.6634 24.6825 43.6262 24.6825H46.312V27.3683H40.9404Z" fill="#2C546A"/>
<path d="M107.437 81.0844C111.184 81.0844 114.906 81.606 118.506 82.6335L131.519 86.3504C131.766 86.4235 132.015 86.4559 132.257 86.4559C133.425 86.4559 134.5 85.6849 134.839 84.5063C135.247 83.0806 134.42 81.595 132.994 81.1863L119.981 77.4695C115.904 76.304 111.685 75.7129 107.438 75.7129H100.028V62.2839H108.085C111.048 62.2839 113.457 59.875 113.457 56.9123V24.6826C113.457 21.7199 111.048 19.311 108.085 19.311H75.8554C72.8926 19.311 70.4838 21.7199 70.4838 24.6826V56.9123C70.4838 59.875 72.8926 62.2839 75.8554 62.2839H83.9128V86.4561H78.5412C74.0987 86.4561 70.4838 90.071 70.4838 94.5135C70.4838 95.5746 70.7008 96.5818 71.0749 97.5111C67.6506 98.4379 65.1121 101.542 65.1121 105.257C65.1121 108.971 67.6504 112.075 71.0749 113.002C70.7008 113.931 70.4838 114.939 70.4838 116C70.4838 120.442 74.0987 124.057 78.5412 124.057H79.0352C78.7342 124.9 78.5412 125.798 78.5412 126.743C78.5412 131.185 82.1561 134.8 86.5986 134.8H107.438C111.683 134.8 115.903 134.209 119.981 133.044L132.994 129.327C134.419 128.919 135.244 127.434 134.839 126.007C134.431 124.581 132.943 123.754 131.519 124.162L118.506 127.878C114.907 128.907 111.185 129.429 107.438 129.429H86.5985C85.1189 129.429 83.9127 128.223 83.9127 126.743C83.9127 125.263 85.1189 124.057 86.5985 124.057H105.399C106.881 124.057 108.085 122.853 108.085 121.371C108.085 119.889 106.881 118.686 105.399 118.686H78.5411C77.0615 118.686 75.8553 117.479 75.8553 116C75.8553 114.52 77.0615 113.314 78.5411 113.314H102.713C104.195 113.314 105.399 112.11 105.399 110.628C105.399 109.146 104.195 107.942 102.713 107.942H73.1695C71.6899 107.942 70.4837 106.736 70.4837 105.257C70.4837 103.777 71.6899 102.571 73.1695 102.571H102.713C104.195 102.571 105.399 101.367 105.399 99.885C105.399 98.403 104.195 97.1992 102.713 97.1992H78.5411C77.0615 97.1992 75.8553 95.993 75.8553 94.5134C75.8553 93.0338 77.0615 91.8276 78.5411 91.8276H102.713C104.195 91.8276 105.399 90.6238 105.399 89.1418C105.399 87.6598 104.195 86.456 102.713 86.456H100.028V81.0844L107.437 81.0844ZM75.8555 24.6825H108.085V56.9122H75.8555V24.6825ZM89.2845 86.456V62.2838H94.6561V86.456H89.2845Z" fill="#2C546A"/>
<path d="M87.94 51.5404C87.94 53.0224 89.1438 54.2262 90.6258 54.2262C92.1078 54.2262 93.3116 53.0224 93.3116 51.5404V51.3498C95.6209 50.7479 97.3403 48.664 97.3403 46.1688V43.483C97.3403 40.5202 94.9315 38.1114 91.9687 38.1114H89.2829V35.4256H94.6545C96.1365 35.4256 97.3403 34.2217 97.3403 32.7398C97.3403 31.2578 96.1365 30.054 94.6545 30.054H93.3116C93.3116 28.572 92.1078 27.3682 90.6258 27.3682C89.1438 27.3682 87.94 28.572 87.94 30.054V30.2446C85.6307 30.8465 83.9113 32.9304 83.9113 35.4256V38.1114C83.9113 41.0742 86.3202 43.483 89.2829 43.483H91.9687V46.1688H86.5971C85.1151 46.1688 83.9113 47.3726 83.9113 48.8546C83.9113 50.3366 85.1151 51.5404 86.5971 51.5404H87.94Z" fill="#2C546A"/>
</svg>
