<svg width="124" height="135" viewBox="0 0 124 135" fill="none" xmlns="http://www.w3.org/2000/svg">
<path d="M112.567 92.0146V94.2528H105.852C104.616 94.2528 103.614 95.255 103.614 96.4909V98.5983C99.5434 96.0793 94.7421 95.0082 89.9872 95.5566C85.232 96.1052 80.8007 98.2424 77.4114 101.623L75.8287 103.205H63.3268C61.2215 103.204 59.1842 103.946 57.5715 105.299C55.9588 106.653 54.8746 108.53 54.5099 110.603C54.1442 112.677 54.5219 114.812 55.575 116.634H27.5145C24.3161 116.634 21.3604 118.341 19.7609 121.111C18.1622 123.881 18.1622 127.294 19.7609 130.064C21.3606 132.833 24.3163 134.54 27.5145 134.54H76.2815C85.8607 134.55 95.2782 132.073 103.613 127.352V127.825C103.613 129.061 104.615 130.064 105.851 130.064H112.566V132.302C112.566 133.538 113.568 134.54 114.804 134.54H123.757V130.064H117.042V94.2525H123.757V89.7761H114.804C113.568 89.7761 112.566 90.7783 112.566 92.0143L112.567 92.0146ZM76.2826 130.064H27.5156C25.9159 130.064 24.4382 129.21 23.6388 127.826C22.8395 126.441 22.8395 124.734 23.6388 123.349C24.4382 121.964 25.916 121.111 27.5156 121.111H81.2322C82.4682 121.111 83.4704 120.109 83.4704 118.873C83.4704 117.637 82.4682 116.635 81.2322 116.635H63.3267C61.727 116.635 60.2492 115.781 59.4499 114.396C58.6505 113.012 58.6505 111.305 59.4499 109.92C60.2492 108.535 61.727 107.682 63.3267 107.682H76.7558C77.3493 107.682 77.9189 107.446 78.3385 107.026L80.5767 104.788C83.6084 101.757 87.686 100.002 91.9715 99.8872C96.2571 99.7713 100.425 101.304 103.614 104.169V122.133C95.4439 127.322 85.9624 130.073 76.2827 130.064L76.2826 130.064ZM108.09 125.587V98.7291H112.567V125.587H108.09Z" fill="#2C546A"/>
<path d="M36.4684 58.4418H47.6594C48.8953 58.4418 49.8975 57.4396 49.8975 56.2036V47.2509C49.8975 46.0149 48.8953 45.0127 47.6594 45.0127H36.4684C35.2324 45.0127 34.2302 46.0149 34.2302 47.2509V56.2036C34.2302 57.4396 35.2324 58.4418 36.4684 58.4418ZM38.7066 49.4891H45.4212V53.9655H38.7066V49.4891Z" fill="#2C546A"/>
<path d="M70.0412 47.2509C70.0412 46.0149 69.039 45.0127 67.803 45.0127H56.6121C55.3761 45.0127 54.3739 46.0149 54.3739 47.2509V56.2036C54.3739 57.4396 55.3761 58.4418 56.6121 58.4418H67.803C69.039 58.4418 70.0412 57.4396 70.0412 56.2036V47.2509ZM65.5648 53.9655H58.8503V49.4891H65.5648V53.9655Z" fill="#2C546A"/>
<path d="M34.2302 74.1092C34.2302 75.3451 35.2324 76.3473 36.4684 76.3473H47.6594C48.8953 76.3473 49.8975 75.3451 49.8975 74.1092V65.1564C49.8975 63.9204 48.8953 62.9182 47.6594 62.9182H36.4684C35.2324 62.9182 34.2302 63.9204 34.2302 65.1564V74.1092ZM38.7066 67.3946H45.4212V71.871H38.7066V67.3946Z" fill="#2C546A"/>
<path d="M70.0412 65.1564C70.0412 63.9204 69.039 62.9182 67.803 62.9182H56.6121C55.3761 62.9182 54.3739 63.9204 54.3739 65.1564V74.1092C54.3739 75.3451 55.3761 76.3473 56.6121 76.3473H67.803C69.039 76.3473 70.0412 75.3451 70.0412 74.1092V65.1564ZM65.5648 71.871H58.8503V67.3946H65.5648V71.871Z" fill="#2C546A"/>
<path d="M34.2302 92.0147C34.2302 93.2507 35.2324 94.2529 36.4684 94.2529H47.6594C48.8953 94.2529 49.8975 93.2507 49.8975 92.0147V83.0619C49.8975 81.8259 48.8953 80.8237 47.6594 80.8237H36.4684C35.2324 80.8237 34.2302 81.8259 34.2302 83.0619V92.0147ZM38.7066 85.3001H45.4212V89.7765H38.7066V85.3001Z" fill="#2C546A"/>
<path d="M67.803 80.8237H56.6121C55.3761 80.8237 54.3739 81.8259 54.3739 83.0619V92.0147C54.3739 93.2507 55.3761 94.2529 56.6121 94.2529H67.803C69.039 94.2529 70.0412 93.2507 70.0412 92.0147V83.0619C70.0412 81.8259 69.039 80.8237 67.803 80.8237ZM65.5648 89.7765H58.8503V85.3001H65.5648V89.7765Z" fill="#2C546A"/>
<path d="M45.4211 103.206H54.3738V98.7292H43.1829C41.9469 98.7292 40.9447 99.7314 40.9447 100.967V112.158H45.4211V103.206Z" fill="#2C546A"/>
<path d="M61.0885 0.249023H2.89554C1.65955 0.249023 0.657349 1.25122 0.657349 2.48721V118.873C0.657349 120.109 1.65955 121.111 2.89554 121.111H14.0865V116.635H5.13373V4.7254H58.8503V36.06H54.3739V29.3455C54.3739 28.1095 53.3717 27.1073 52.1357 27.1073H36.4684C35.2324 27.1073 34.2302 28.1095 34.2302 29.3455V36.06H29.7538V29.3455C29.7538 28.1095 28.7516 27.1073 27.5156 27.1073H11.8483C10.6123 27.1073 9.6101 28.1095 9.6101 29.3455V38.2982C9.6101 39.5342 10.6123 40.5364 11.8483 40.5364H25.2774V45.0128H11.8483C10.6123 45.0128 9.6101 46.015 9.6101 47.251V56.2037C9.6101 57.4397 10.6123 58.4419 11.8483 58.4419H25.2774V62.9183H11.8483C10.6123 62.9183 9.6101 63.9205 9.6101 65.1565V74.1093C9.6101 75.3452 10.6123 76.3474 11.8483 76.3474H25.2774V87.5384H18.5629C17.3269 87.5384 16.3247 88.5406 16.3247 89.7766V114.397H20.8011V92.0148H25.2774V112.158H29.7538V40.5364H74.5176V94.253H78.994V38.2982C78.994 37.0622 77.9918 36.06 76.7558 36.06H63.3266V2.48721C63.3266 1.25122 62.3244 0.249023 61.0885 0.249023ZM38.7066 31.5837H49.8975V36.06H38.7066V31.5837ZM14.0865 31.5837H25.2774V36.06H14.0865V31.5837ZM14.0865 53.9656V49.4892H25.2774V53.9656H14.0865ZM14.0865 71.8711V67.3947H25.2774V71.8711H14.0865Z" fill="#2C546A"/>
<path d="M11.8483 22.6308H27.5156C28.7516 22.6308 29.7538 21.6286 29.7538 20.3926V11.4398C29.7538 10.2039 28.7516 9.20166 27.5156 9.20166H11.8483C10.6123 9.20166 9.61011 10.2039 9.61011 11.4398V20.3926C9.61011 21.6286 10.6123 22.6308 11.8483 22.6308ZM14.0865 13.678H25.2774V18.1544H14.0865V13.678Z" fill="#2C546A"/>
<path d="M36.4684 22.6308H52.1357C53.3717 22.6308 54.3739 21.6286 54.3739 20.3926V11.4398C54.3739 10.2039 53.3717 9.20166 52.1357 9.20166H36.4684C35.2324 9.20166 34.2302 10.2039 34.2302 11.4398V20.3926C34.2302 21.6286 35.2324 22.6308 36.4684 22.6308ZM38.7066 13.678H49.8975V18.1544H38.7066V13.678Z" fill="#2C546A"/>
</svg>
